<svg width="20" height="20" viewBox="0 0 20 20" fill="none" xmlns="http://www.w3.org/2000/svg">
<path d="M6.95982 16.8682C7.66073 17.7592 8.76183 18.3333 10 18.3333C11.2382 18.3333 12.3392 17.7592 13.0402 16.8682C11.022 17.1417 8.978 17.1417 6.95982 16.8682Z" fill="#ffffff"/>
<path d="M15.6243 7.50002V8.08677C15.6243 8.79094 15.8252 9.47935 16.2018 10.0652L17.1247 11.501C17.9677 12.8124 17.3242 14.5949 15.858 15.0097C12.0227 16.0945 7.97728 16.0945 4.14197 15.0097C2.67588 14.5949 2.03235 12.8124 2.8753 11.501L3.79817 10.0652C4.17477 9.47935 4.37573 8.79094 4.37573 8.08677V7.50002C4.37573 4.27836 6.8938 1.66669 10 1.66669C13.1062 1.66669 15.6243 4.27836 15.6243 7.50002Z" fill="#ffffff"/>
</svg>
