<svg width="20" height="20" viewBox="0 0 20 20" fill="none" xmlns="http://www.w3.org/2000/svg">
<path d="M4.72461 8.26193L7.27639 4.8094C8.92584 2.57769 9.75058 1.46184 10.5201 1.69764C11.2895 1.93344 11.2895 3.30204 11.2895 6.03923V6.29731C11.2895 7.28455 11.2895 7.77818 11.605 8.0878L11.6217 8.10384C11.9439 8.40696 12.4577 8.40696 13.4852 8.40696C15.3343 8.40696 16.2588 8.40696 16.5713 8.96771C16.5764 8.97696 16.5814 8.98638 16.5863 8.99579C16.8813 9.56529 16.346 10.2895 15.2753 11.738L12.7236 15.1905C11.0741 17.4222 10.2493 18.5381 9.47984 18.3023C8.71042 18.0665 8.71042 16.6979 8.71042 13.9606L8.7105 13.7027C8.7105 12.7154 8.7105 12.2218 8.395 11.9121L8.37833 11.8961C8.05608 11.593 7.54233 11.593 6.51479 11.593C4.66573 11.593 3.74121 11.593 3.42875 11.0322C3.42358 11.023 3.41854 11.0136 3.41366 11.0041C3.1187 10.4347 3.654 9.71046 4.72461 8.26193Z" fill="#ffffff"/>
</svg>
