<svg width="16" height="16" viewBox="0 0 16 16" fill="none" xmlns="http://www.w3.org/2000/svg">
<path fill-rule="evenodd" clip-rule="evenodd" d="M8 1.33334C4.31809 1.33334 1.33333 4.31811 1.33333 8.00001C1.33333 11.6819 4.31809 14.6667 8 14.6667C11.6819 14.6667 14.6667 11.6819 14.6667 8.00001C14.6667 4.31811 11.6819 1.33334 8 1.33334ZM7.48493 5.7127L6.14157 6.78248C5.57796 7.23128 5.29615 7.45574 5.35116 7.70628L5.35409 7.71868C5.41676 7.96768 5.77397 8.06341 6.48839 8.25488C6.8854 8.36121 7.08393 8.41441 7.17706 8.56488L7.1818 8.57281C7.27166 8.72508 7.22053 8.91581 7.11833 9.29728L7.09159 9.39694C6.80819 10.4545 6.66652 10.9833 6.93939 11.1541C7.21226 11.3248 7.64646 10.9791 8.51486 10.2876L9.8582 9.21781C10.4218 8.76901 10.7036 8.54461 10.6486 8.29401L10.6457 8.28161C10.583 8.03261 10.2258 7.93688 9.5114 7.74548C9.1144 7.63908 8.91586 7.58588 8.82273 7.43541L8.818 7.42748C8.72813 7.27521 8.77926 7.08448 8.88146 6.70308L8.9082 6.60334C9.19153 5.54577 9.33326 5.01699 9.06033 4.84622C8.78746 4.67545 8.35326 5.0212 7.48493 5.7127Z" fill="#ffffff"/>
</svg>
