<svg width="20" height="20" viewBox="0 0 20 20" fill="none" xmlns="http://www.w3.org/2000/svg">
<path fill-rule="evenodd" clip-rule="evenodd" d="M12.9419 8.72476C12.6978 8.48068 12.3022 8.48068 12.0581 8.72476L10.625 10.1578V3.33334C10.625 2.98817 10.3452 2.70834 10 2.70834C9.65483 2.70834 9.375 2.98817 9.375 3.33334V10.1578L7.94194 8.72476C7.69786 8.48068 7.30213 8.48068 7.05806 8.72476C6.81398 8.96884 6.81398 9.36451 7.05806 9.60859L9.55808 12.1086C9.80216 12.3527 10.1978 12.3527 10.4419 12.1086L12.9419 9.60859C13.186 9.36451 13.186 8.96884 12.9419 8.72476Z" fill="#ffffff"/>
<path d="M14.7897 10C14.4164 10 14.0898 10.2285 13.8259 10.4925L11.3259 12.9925C10.5936 13.7247 9.40646 13.7247 8.67421 12.9925L6.17422 10.4925C5.91026 10.2285 5.58372 10 5.21042 10H3.33337C3.33337 13.6819 6.31814 16.6667 10 16.6667C13.682 16.6667 16.6667 13.6819 16.6667 10H14.7897Z" fill="#ffffff"/>
</svg>
