<svg width="20" height="20" viewBox="0 0 20 20" fill="none" xmlns="http://www.w3.org/2000/svg">
<path d="M9.50004 15.1343L15.6633 8.97108C14.8245 8.62199 13.831 8.0485 12.8914 7.1089C11.9516 6.16914 11.378 5.17548 11.029 4.33658L4.86564 10.4999C4.3847 10.9809 4.14418 11.2214 3.93738 11.4865C3.6934 11.7993 3.48424 12.1377 3.31358 12.4958C3.1689 12.7994 3.06136 13.1221 2.84626 13.7673L1.712 17.1702C1.60615 17.4877 1.68879 17.8377 1.92548 18.0745C2.16218 18.3112 2.51228 18.3938 2.82983 18.288L6.23261 17.1537C6.87788 16.9386 7.20054 16.8311 7.50411 16.6864C7.8622 16.5157 8.20064 16.3066 8.51346 16.0626C8.77854 15.8557 9.01913 15.6152 9.50004 15.1343Z" fill="#ffffff"/>
<path d="M17.3735 7.26088C18.6532 5.98112 18.6532 3.90623 17.3735 2.62648C16.0937 1.34672 14.0188 1.34672 12.739 2.62648L11.9999 3.36568C12.01 3.39624 12.0205 3.42723 12.0314 3.45862C12.3023 4.23958 12.8135 5.26333 13.7752 6.22501C14.7369 7.18668 15.7606 7.6979 16.5416 7.96884C16.5729 7.97968 16.6037 7.99013 16.6341 8.00021L17.3735 7.26088Z" fill="#ffffff"/>
</svg>
