<svg width="42" height="42" viewBox="0 0 42 42" fill="none" xmlns="http://www.w3.org/2000/svg">
<path d="M38.4997 22.2212C38.497 24.793 38.4774 26.9789 38.3313 28.7725C38.1617 30.8539 37.8142 32.5931 37.0363 34.0375C36.6933 34.6745 36.2717 35.2452 35.7585 35.7585C34.3018 37.215 32.4459 37.8749 30.0941 38.1911C27.7961 38.5 24.8512 38.5 21.0935 38.5H20.9066C17.1488 38.5 14.2038 38.5 11.906 38.1911C9.55415 37.8749 7.69829 37.215 6.24162 35.7585C4.95024 34.467 4.28335 32.8598 3.92872 30.8658C3.58034 28.9072 3.51661 26.4703 3.50336 23.4442C3.5 22.6746 3.5 21.8605 3.5 21.0016V20.9066C3.49998 17.1488 3.49997 14.2038 3.80889 11.906C4.1251 9.55414 4.78496 7.69829 6.24162 6.24162C7.69829 4.78496 9.55415 4.1251 11.906 3.80889C13.9494 3.53416 16.5786 3.50376 19.7785 3.50042C20.4528 3.4997 21 4.04663 21 4.72092C21 5.39523 20.4526 5.9416 19.7783 5.94232C16.5331 5.94575 14.1181 5.97531 12.2314 6.22897C10.1503 6.50878 8.89562 7.04093 7.96828 7.96828C7.04093 8.89562 6.50878 10.1503 6.22897 12.2314C5.94445 14.3477 5.94186 17.1285 5.94186 21C5.94186 21.4729 5.94186 21.93 5.94242 22.3727L7.57218 20.9468C9.05564 19.6487 11.2914 19.7232 12.6853 21.1169L19.6686 28.1003C20.7874 29.2191 22.5484 29.3715 23.8429 28.4618L24.3283 28.1206C26.191 26.8116 28.7112 26.9633 30.4035 28.4863L35.0112 32.6333C35.475 31.6593 35.7504 30.3795 35.8974 28.5742C36.036 26.8732 36.0551 24.8071 36.0577 22.2213C36.0584 21.5471 36.6048 21 37.279 21C37.9533 21 38.5004 21.5469 38.4997 22.2212Z" fill="#ffffff"/>
<path fill-rule="evenodd" clip-rule="evenodd" d="M30.625 19.25C26.9127 19.25 25.0565 19.25 23.9033 18.0967C22.75 16.9435 22.75 15.0873 22.75 11.375C22.75 7.66269 22.75 5.80653 23.9033 4.65327C25.0565 3.5 26.9127 3.5 30.625 3.5C34.3373 3.5 36.1935 3.5 37.3467 4.65327C38.5 5.80653 38.5 7.66269 38.5 11.375C38.5 15.0873 38.5 16.9435 37.3467 18.0967C36.1935 19.25 34.3373 19.25 30.625 19.25ZM31.9375 7.875C31.9375 7.15013 31.3498 6.5625 30.625 6.5625C29.9001 6.5625 29.3125 7.15013 29.3125 7.875V10.0625H27.125C26.4002 10.0625 25.8125 10.6501 25.8125 11.375C25.8125 12.0999 26.4002 12.6875 27.125 12.6875H29.3125V14.875C29.3125 15.5999 29.9001 16.1875 30.625 16.1875C31.3498 16.1875 31.9375 15.5999 31.9375 14.875V12.6875H34.125C34.8498 12.6875 35.4375 12.0999 35.4375 11.375C35.4375 10.6501 34.8498 10.0625 34.125 10.0625H31.9375V7.875Z" fill="#ffffff"/>
</svg>
