<svg width="38" height="38" viewBox="0 0 38 38" fill="none" xmlns="http://www.w3.org/2000/svg">
<path fill-rule="evenodd" clip-rule="evenodd" d="M19.6772 3.16666C17.9137 3.16666 16.3075 4.11776 13.0955 6.02L12.0091 6.66338C8.79691 8.56562 7.19084 9.51673 6.30905 11.0833C5.42725 12.6499 5.42725 14.5522 5.42725 18.3567V19.6433C5.42725 23.4479 5.42725 25.3501 6.30905 26.9167C7.19084 28.4832 8.79691 29.4343 12.0091 31.3365L13.0955 31.98C16.3075 33.8822 17.9137 34.8333 19.6772 34.8333C21.4409 34.8333 23.0468 33.8822 26.2591 31.98L27.3454 31.3365C30.5575 29.4343 32.1637 28.4832 33.0454 26.9167C33.9272 25.3501 33.9272 23.4479 33.9272 19.6433V18.3567C33.9272 14.5522 33.9272 12.6499 33.0454 11.0833C32.1637 9.51673 30.5575 8.56562 27.3454 6.66338L26.2591 6.02C23.0468 4.11776 21.4409 3.16666 19.6772 3.16666ZM13.7397 19C13.7397 15.7208 16.3981 13.0625 19.6772 13.0625C22.9564 13.0625 25.6147 15.7208 25.6147 19C25.6147 22.2792 22.9564 24.9375 19.6772 24.9375C16.3981 24.9375 13.7397 22.2792 13.7397 19Z" fill="#ffffff"/>
</svg>
