<svg width="20" height="20" viewBox="0 0 20 20" fill="none" xmlns="http://www.w3.org/2000/svg">
<path fill-rule="evenodd" clip-rule="evenodd" d="M11.5025 4.44443C11.5025 2.91031 12.7518 1.66666 14.2929 1.66666C15.834 1.66666 17.0833 2.91031 17.0833 4.44443C17.0833 5.97856 15.834 7.22222 14.2929 7.22222C13.5147 7.22222 12.8115 6.90496 12.3059 6.39455L8.44304 9.02457C8.47871 9.20207 8.49746 9.38541 8.49746 9.57266C8.49746 9.94349 8.42413 10.298 8.29128 10.622L12.5269 13.4048C13.0076 13.0134 13.6227 12.7777 14.2929 12.7777C15.834 12.7777 17.0833 14.0214 17.0833 15.5556C17.0833 17.0897 15.834 18.3333 14.2929 18.3333C12.7518 18.3333 11.5025 17.0897 11.5025 15.5556C11.5025 15.1537 11.5885 14.7712 11.743 14.4259L7.54168 11.6656C7.05159 12.0915 6.40963 12.3504 5.70703 12.3504C4.16593 12.3504 2.91663 11.1067 2.91663 9.57266C2.91663 8.03852 4.16593 6.79486 5.70703 6.79486C6.59321 6.79486 7.38207 7.20603 7.89283 7.84597L11.6365 5.29701C11.5495 5.02798 11.5025 4.74132 11.5025 4.44443Z" fill="#ffffff"/>
</svg>
