<svg width="48" height="48" viewBox="0 0 48 48" fill="none" xmlns="http://www.w3.org/2000/svg">
<path d="M14.9057 5.42532C15.6552 3.52488 18.3448 3.5249 19.0943 5.42534L21.417 11.3146C21.6458 11.8949 22.1052 12.3541 22.6854 12.583L28.5746 14.9057C30.4752 15.6552 30.4752 18.3448 28.5746 19.0943L22.6854 21.417C22.1052 21.6458 21.6458 22.1052 21.417 22.6854L19.0943 28.5746C18.3448 30.4752 15.6552 30.4752 14.9057 28.5746L12.583 22.6854C12.3541 22.1052 11.8949 21.6458 11.3146 21.417L5.42532 19.0943C3.52488 18.3448 3.5249 15.6552 5.42534 14.9057L11.3146 12.583C11.8949 12.3541 12.3541 11.8949 12.583 11.3146L14.9057 5.42532Z" fill="#ffffff"/>
<path d="M33.849 26.7832C34.261 25.739 35.739 25.739 36.151 26.7832L37.9522 31.3506C38.078 31.6696 38.3304 31.922 38.6494 32.0478L43.2168 33.849C44.261 34.261 44.261 35.739 43.2168 36.151L38.6494 37.9522C38.3304 38.078 38.078 38.3304 37.9522 38.6494L36.151 43.2168C35.739 44.261 34.261 44.261 33.849 43.2168L32.0478 38.6494C31.922 38.3304 31.6696 38.078 31.3506 37.9522L26.7832 36.151C25.739 35.739 25.739 34.261 26.7832 33.849L31.3506 32.0478C31.6696 31.922 31.922 31.6696 32.0478 31.3506L33.849 26.7832Z" fill="#ffffff"/>
</svg>
