<svg width="79" height="61" viewBox="0 0 79 61" fill="none" xmlns="http://www.w3.org/2000/svg">
<g clip-path="url(#clip0_2082_2192)">
<ellipse cx="38.7344" cy="22.2264" rx="18.1404" ry="18.161" stroke="#0F172A" stroke-width="6"/>
<path d="M73.8269 22.2264C73.8269 31.5441 70.1296 40.4802 63.5485 47.0687C56.9674 53.6573 48.0415 57.3588 38.7344 57.3588C29.4272 57.3588 20.5013 53.6573 13.9202 47.0688C7.33908 40.4802 3.64185 31.5441 3.64185 22.2264" stroke="#0F172A" stroke-width="6" stroke-linecap="round"/>
<path d="M77.2393 0.249048C78.1958 -0.166849 79.1666 0.805075 78.7512 1.76267L77.1837 4.73016C77.0569 5.0225 77.0569 5.35448 77.1837 5.64683L78.7512 8.6143C79.1667 9.57195 78.1959 10.5439 77.2393 10.1279L74.2752 8.55865C73.9832 8.43166 73.6516 8.43166 73.3596 8.55865L70.3955 10.1279C69.4389 10.5439 68.4681 9.57195 68.8836 8.6143L70.451 5.64683C70.5779 5.35448 70.5779 5.0225 70.4511 4.73016L68.8835 1.76266C68.4681 0.805068 69.4389 -0.166842 70.3954 0.249056L73.3596 1.81834C73.6516 1.94532 73.9832 1.94532 74.2752 1.81834L77.2393 0.249048Z" fill="#FACC15"/>
</g>
<defs>
<clipPath id="clip0_2082_2192">
<rect width="79" height="61" fill="white"/>
</clipPath>
</defs>
</svg>
