<svg width="20" height="20" viewBox="0 0 20 20" fill="none" xmlns="http://www.w3.org/2000/svg">
<path fill-rule="evenodd" clip-rule="evenodd" d="M10 2.29169C7.58376 2.29169 5.625 4.25045 5.625 6.66669V8.33635C5.94418 8.33335 6.29041 8.33335 6.66667 8.33335H13.3333C15.6903 8.33335 16.8688 8.33335 17.6011 9.0656C18.3333 9.79785 18.3333 10.9764 18.3333 13.3334C18.3333 15.6904 18.3333 16.8689 17.6011 17.6011C16.8688 18.3334 15.6903 18.3334 13.3333 18.3334H6.66667C4.30964 18.3334 3.13113 18.3334 2.3989 17.6011C1.66667 16.8689 1.66667 15.6904 1.66667 13.3334C1.66667 10.9764 1.66667 9.79785 2.3989 9.0656C2.84109 8.62335 3.44604 8.44827 4.375 8.37885V6.66669C4.375 3.56009 6.8934 1.04169 10 1.04169C12.6219 1.04169 14.8233 2.83494 15.4478 5.2609C15.5338 5.59519 15.3326 5.93592 14.9983 6.02196C14.664 6.108 14.3233 5.90675 14.2372 5.57247C13.7515 3.68537 12.0378 2.29169 10 2.29169ZM10.625 11.6667C10.625 11.3215 10.3452 11.0417 10 11.0417C9.65483 11.0417 9.375 11.3215 9.375 11.6667V15C9.375 15.3452 9.65483 15.625 10 15.625C10.3452 15.625 10.625 15.3452 10.625 15V11.6667Z" fill="#ffffff"/>
</svg>
